<svg width="256" height="257" viewBox="0 0 256 257" fill="none" xmlns="http://www.w3.org/2000/svg">
<path d="M255.135 19.1597V256.071H0V19.1597H34.018V0.935791H85.045C92.8408 0.935791 100.327 2.21716 107.502 4.7799C114.678 7.34264 121.366 11.1868 127.568 16.3122C133.68 11.1868 140.324 7.34264 147.5 4.7799C154.676 2.21716 162.206 0.935791 170.09 0.935791H221.117V19.1597H255.135ZM170.09 19.1597C163.889 19.1597 157.865 20.2513 152.018 22.4343C146.171 24.6174 140.856 27.892 136.072 32.2582V210.796C141.299 207.664 146.791 205.338 152.55 203.819C158.308 202.301 164.155 201.494 170.09 201.399H204.108V19.1597H170.09ZM51.027 201.399H85.045C90.9805 201.399 96.8273 202.158 102.586 203.677C108.344 205.196 113.836 207.569 119.063 210.796V32.2582C114.279 27.9869 108.964 24.7598 103.117 22.5767C97.2703 20.3936 91.2462 19.2546 85.045 19.1597H51.027V201.399ZM17.009 237.847H124.113C121.278 234.905 118.399 232.342 115.475 230.159C112.552 227.976 109.54 226.077 106.439 224.464C103.339 222.85 100.017 221.664 96.473 220.904C92.9294 220.145 89.1201 219.718 85.045 219.623H34.018V37.3837H17.009V237.847ZM238.126 37.3837H221.117V219.623H170.09C166.015 219.623 162.25 220.003 158.795 220.762C155.34 221.521 152.018 222.708 148.829 224.321C145.64 225.935 142.583 227.833 139.66 230.016C136.736 232.199 133.857 234.81 131.023 237.847H238.126V37.3837Z" fill="#7F8CAA"/>
</svg>
