<svg width="217" height="229" viewBox="0 0 217 229" fill="none" xmlns="http://www.w3.org/2000/svg">
<path d="M101.275 0.282507C43.7158 4.01542 0.125 54.47 0.125 112.15V192.708C0.125 212.697 16.2608 228.833 36.25 228.833H48.2917C61.5375 228.833 72.375 217.996 72.375 204.75V156.583C72.375 143.337 61.5375 132.5 48.2917 132.5H24.2083V111.909C24.2083 65.6688 59.8517 25.4496 105.971 24.125C117.252 23.7864 128.485 25.7165 139.005 29.8007C149.526 33.8849 159.119 40.0401 167.216 47.9013C175.313 55.7625 181.749 65.1695 186.142 75.5647C190.536 85.9598 192.797 97.1313 192.792 108.417V132.5H168.708C155.463 132.5 144.625 143.337 144.625 156.583V204.75C144.625 217.996 155.463 228.833 168.708 228.833H180.75C200.739 228.833 216.875 212.697 216.875 192.708V108.417C216.875 46.1613 164.373 -3.81166 101.275 0.282507Z" fill="#7F8CAA"/>
</svg>
