<svg width="256" height="256" viewBox="0 0 256 256" fill="none" xmlns="http://www.w3.org/2000/svg">
<g clip-path="url(#clip0_266_55)">
<path d="M202.667 138.667C199.838 138.667 197.125 139.79 195.124 141.791C193.124 143.791 192 146.504 192 149.333V224C192 226.829 190.876 229.542 188.876 231.542C186.875 233.543 184.162 234.667 181.333 234.667H32C29.171 234.667 26.4579 233.543 24.4575 231.542C22.4571 229.542 21.3333 226.829 21.3333 224V32C21.3333 29.171 22.4571 26.4579 24.4575 24.4575C26.4579 22.4571 29.171 21.3333 32 21.3333H106.667C109.496 21.3333 112.209 20.2095 114.209 18.2091C116.21 16.2088 117.333 13.4956 117.333 10.6667C117.333 7.83769 116.21 5.12458 114.209 3.12419C112.209 1.12381 109.496 0 106.667 0L32 0C23.5131 0 15.3737 3.37142 9.37258 9.37258C3.37142 15.3737 0 23.5131 0 32L0 224C0 232.487 3.37142 240.626 9.37258 246.627C15.3737 252.629 23.5131 256 32 256H181.333C189.82 256 197.96 252.629 203.961 246.627C209.962 240.626 213.333 232.487 213.333 224V149.333C213.333 146.504 212.21 143.791 210.209 141.791C208.209 139.79 205.496 138.667 202.667 138.667Z" fill="#7F8CAA"/>
<path d="M93.12 133.547C92.2193 133.81 91.4022 134.303 90.748 134.975C90.0939 135.648 89.6249 136.479 89.3867 137.387L83.4133 161.28L70.08 174.613C69.3253 175.349 68.7254 176.228 68.3158 177.199C67.9063 178.17 67.6953 179.213 67.6953 180.267C67.6953 181.32 67.9063 182.364 68.3158 183.335C68.7254 184.305 69.3253 185.185 70.08 185.92C71.58 187.418 73.6133 188.26 75.7333 188.26C77.8533 188.26 79.8867 187.418 81.3867 185.92L94.8267 172.48L118.4 166.613C119.316 166.356 120.15 165.868 120.822 165.195C121.495 164.523 121.983 163.689 122.24 162.773C122.498 161.875 122.506 160.922 122.261 160.02C122.017 159.117 121.53 158.299 120.853 157.653L98.3467 134.933C97.6781 134.257 96.8411 133.772 95.9221 133.528C95.0032 133.285 94.0357 133.291 93.12 133.547ZM252.907 3.09332C251.915 2.09355 250.735 1.30001 249.435 0.758481C248.136 0.216949 246.741 -0.0618591 245.333 -0.0618591C243.925 -0.0618591 242.531 0.216949 241.231 0.758481C239.931 1.30001 238.752 2.09355 237.76 3.09332L228.267 12.6933C225.518 11.9516 222.648 11.7677 219.827 12.1524C217.006 12.5371 214.29 13.4826 211.84 14.9333H211.307C205.311 8.97329 197.201 5.62796 188.747 5.62796C180.293 5.62796 172.182 8.97329 166.187 14.9333L128 53.3333C127.005 54.3209 126.215 55.4946 125.674 56.7876C125.133 58.0805 124.852 59.4674 124.847 60.8689C124.842 62.2705 125.114 63.6593 125.645 64.956C126.177 66.2528 126.959 67.4321 127.947 68.4267C128.934 69.4212 130.108 70.2115 131.401 70.7524C132.694 71.2933 134.081 71.5743 135.482 71.5792C136.884 71.5842 138.273 71.3131 139.569 70.7813C140.866 70.2495 142.045 69.4675 143.04 68.48L181.333 29.44C183.327 27.4856 186.008 26.3908 188.8 26.3908C191.592 26.3908 194.273 27.4856 196.267 29.44L188.8 36.9067C188.3 37.4025 187.903 37.9923 187.633 38.6422C187.362 39.2922 187.222 39.9893 187.222 40.6933C187.222 41.3974 187.362 42.0945 187.633 42.7444C187.903 43.3943 188.3 43.9842 188.8 44.48L211.413 67.2C212.398 68.2049 213.74 68.7799 215.147 68.8C215.846 68.8085 216.54 68.6706 217.183 68.395C217.826 68.1194 218.404 67.7124 218.88 67.2L237.76 48.4267C240.427 45.7729 242.345 42.461 243.319 38.8267C244.293 35.1925 244.289 31.3653 243.307 27.7333L252.907 18.24C253.906 17.2484 254.7 16.0686 255.242 14.7688C255.783 13.469 256.062 12.0748 256.062 10.6667C256.062 9.25853 255.783 7.86434 255.242 6.56451C254.7 5.26467 253.906 4.08493 252.907 3.09332Z" fill="#7F8CAA"/>
<path d="M132.267 151.68C132.981 151.684 133.689 151.545 134.349 151.27C135.009 150.995 135.606 150.59 136.107 150.08L203.84 82.3467C204.34 81.8509 204.737 81.261 205.007 80.6111C205.278 79.9612 205.418 79.2641 205.418 78.56C205.418 77.8559 205.278 77.1588 205.007 76.5089C204.737 75.859 204.34 75.2691 203.84 74.7733L181.333 52.16C180.318 51.176 178.96 50.6257 177.547 50.6257C176.133 50.6257 174.775 51.176 173.76 52.16L105.92 120C105.41 120.479 105.003 121.057 104.725 121.699C104.447 122.341 104.304 123.034 104.304 123.733C104.304 124.433 104.447 125.125 104.725 125.767C105.003 126.41 105.41 126.988 105.92 127.467L128.533 150.08C129.518 151.085 130.86 151.66 132.267 151.68Z" fill="#7F8CAA"/>
</g>
<defs>
<clipPath id="clip0_266_55">
<rect width="256" height="256" fill="white"/>
</clipPath>
</defs>
</svg>
